#!OML:ASF E:\inclinewalkrobotboard\Project 1\Capture day 1\Session 1\subject1.ASF
:FULLY-SPECIFIED
:DEGREES
239
root 8.64984 21.1759 12.4069 -171.595 8.53147 -180.034
lowerback 8.50137 4.16814 -2.69938
upperback 5.41537 5.85555 1.85202
thorax 0.416607 3.04991 2.93483
lowerneck -6.72624 -0.127131 -3.81579
upperneck 22.7112 -1.64107 2.72275
head 8.166 -1.35385 1.33349
rclavicle 3.22031e-014 3.18055e-014
rhumerus -6.22471 3.87391 -92.1698
rradius 38.9019
rwrist 1.47276
rhand -13.1434 -34.2734
rfingers 7.12502
rthumb 12.955 -63.8513
lclavicle 3.22031e-014 3.18055e-014
lhumerus -35.7917 19.547 74.6481
lradius 14.4642
lwrist -34.4855
lhand -25.1785 -19.2702
lfingers 7.12502
lthumb 1.33917 10.7053
rfemur -2.26296 4.66047 24.5526
rtibia 16.5347
rfoot -35.0431 5.28158
rtoes -15.9946
lfemur -65.8441 1.29963 -14.8382
ltibia 50.5446
lfoot -7.01117 7.47653
ltoes -65.1979
240
root 8.62746 21.1755 12.168 -171.414 9.10079 -180.057
lowerback 8.40449 4.29781 -2.92854
upperback 5.41429 6.00571 1.71048
thorax 0.451416 3.11753 2.90982
lowerneck -6.58649 -0.130782 -3.99204
upperneck 22.5122 -1.65506 2.94218
head 8.07639 -1.35011 1.43608
rclavicle -7.15625e-015 2.70347e-014
rhumerus -6.08568 3.71322 -92.4597
rradius 38.3978
rwrist 1.32899
rhand -13.6088 -34.5442
rfingers 7.12502
rthumb 12.5063 -64.1499
lclavicle -7.15625e-015 2.70347e-014
lhumerus -35.7477 19.4835 74.7368
lradius 14.4615
lwrist -35.0417
lhand -25.5421 -19.6101
lfingers 7.12502
lthumb 0.988028 10.3673
rfemur -1.66548 4.80815 24.2113
rtibia 16.7191
rfoot -34.6055 5.72562
rtoes -18.0125
lfemur -65.8025 1.42658 -15.0053
ltibia 51.9762
lfoot -7.55684 6.29742
ltoes -64.1453
241
root 8.60194 21.1867 11.9262 -171.08 9.62328 -180.163
lowerback 8.22333 4.47914 -3.20384
upperback 5.32211 6.20969 1.48352
thorax 0.437866 3.20823 2.81971
lowerneck -6.60848 -0.17341 -3.83342
upperneck 22.5167 -1.73489 2.92468
head 8.08377 -1.37596 1.39615
rclavicle 4.6118e-014 1.51076e-014
rhumerus -6.19485 3.10655 -92.7225
rradius 37.9176
rwrist 1.34293
rhand -13.7522 -34.6319
rfingers 7.12502
rthumb 12.368 -64.2461
lclavicle 4.6118e-014 1.51076e-014
lhumerus -35.553 19.0405 74.8924
lradius 14.5402
lwrist -35.3587
lhand -25.5769 -19.9328
lfingers 7.12502
lthumb 0.954374 10.0448
rfemur -1.26337 4.99669 23.7024
rtibia 16.9765
rfoot -33.8546 6.47123
rtoes -17.1144
lfemur -65.7684 1.52625 -15.4479
ltibia 53.5274
lfoot -10.4226 7.37
ltoes -64.8859
242
root 8.5709 21.2112 11.6786 -170.768 10.0845 -180.398
lowerback 8.12838 4.59522 -3.54598
upperback 5.25544 6.32728 1.2255
thorax 0.406964 3.25749 2.73676
lowerneck -6.47472 -0.259935 -3.76482
upperneck 22.0621 -1.7605 2.72391
head 7.90712 -1.38118 1.31758
rclavicle 2.28602e-014 -1.19271e-014
rhumerus -6.45092 2.35392 -92.8965
rradius 37.428
rwrist 1.57023
rhand -13.3435 -34.6316
rfingers 7.12502
rthumb 12.762 -64.2216
lclavicle 2.28602e-014 -1.19271e-014
lhumerus -35.4015 18.7487 75.0438
lradius 14.6813
lwrist -35.5972
lhand -25.6844 -20.2349
lfingers 7.12502
lthumb 0.850516 9.74312
rfemur -0.789008 5.11789 22.9892
rtibia 17.1723
rfoot -32.7948 7.13509
rtoes -17.1471
lfemur -65.4604 1.43593 -16.0736
ltibia 54.7878
lfoot -13.2062 8.14176
ltoes -65.377
243
root 8.53456 21.2465 11.4244 -170.485 10.4789 -180.63
lowerback 8.08101 4.53961 -3.95158
upperback 5.31891 6.23289 1.06443
thorax 0.484953 3.20237 2.8113
lowerneck -6.52328 -0.109586 -4.21492
upperneck 21.667 -1.48735 3.07965
head 7.779 -1.23251 1.53652
rclavicle -1.17283e-014 1.59028e-015
rhumerus -6.56644 2.07991 -92.8784
rradius 36.8657
rwrist 1.75346
rhand -12.831 -35.0111
rfingers 7.12502
rthumb 13.2561 -64.5695
lclavicle -1.17283e-014 1.59028e-015
lhumerus -35.1658 19.1597 75.1495
lradius 14.6902
lwrist -35.932
lhand -26.04 -20.5714
lfingers 7.12502
lthumb 0.50715 9.40777
rfemur -0.214923 5.339 22.2676
rtibia 17.2271
rfoot -31.371 7.52591
rtoes -19.347
lfemur -64.8277 1.17409 -16.6542
ltibia 55.3486
lfoot -15.6831 8.49512
ltoes -65.1345
244
root 8.49597 21.2974 11.1625 -170.061 10.6275 -180.875
lowerback 7.91439 4.74503 -4.11671
upperback 5.15755 6.47551 0.671278
thorax 0.417397 3.31858 2.48233
lowerneck -6.0667 -0.274002 -3.82984
upperneck 21.2252 -1.80342 3.30311
head 7.56142 -1.32673 1.51968
rclavicle 2.98177e-015 -1.15295e-014
rhumerus -7.15509 0.618886 -92.7584
rradius 36.3216
rwrist 1.75813
rhand -12.9656 -35.2361
rfingers 7.12502
rthumb 13.1263 -64.8029
lclavicle 2.98177e-015 -1.15295e-014
lhumerus -34.5801 18.1042 75.4028
lradius 14.4834
lwrist -35.9705
lhand -26.3896 -20.6477
lfingers 7.12502
lthumb 0.169479 9.33202
rfemur 0.246673 5.61035 21.5534
rtibia 17.1811
rfoot -29.6261 7.77157
rtoes -21.5502
lfemur -64.1583 0.628416 -17.3014
ltibia 55.4518
lfoot -17.8681 8.64144
ltoes -64.4088
245
root 8.45905 21.3713 10.8966 -169.456 10.5213 -181.101
lowerback 7.59632 4.6955 -4.51122
upperback 5.0874 6.38472 0.498945
thorax 0.505725 3.25989 2.55522
lowerneck -6.46342 -0.284991 -3.49573
upperneck 21.1889 -1.73951 2.97045
head 7.61466 -1.28062 1.35892
rclavicle -3.51849e-014 9.54166e-015
rhumerus -7.73352 -0.0934614 -92.3759
rradius 35.7693
rwrist 1.55085
rhand -13.3333 -35.4523
rfingers 7.12502
rthumb 12.7719 -65.0417
lclavicle -3.51849e-014 9.54166e-015
lhumerus -33.9147 17.7002 75.8622
lradius 14.4443
lwrist -35.848
lhand -26.5591 -20.463
lfingers 7.12502
lthumb 0.00571852 9.51673
rfemur 0.470147 5.79235 20.8731
rtibia 17.2283
rfoot -27.5251 8.16538
rtoes -22.7005
lfemur -63.6138 -0.13009 -17.9428
ltibia 55.4667
lfoot -19.8835 8.2364
ltoes -63.1305
246
root 8.42233 21.4657 10.6326 -168.772 10.2841 -181.16
lowerback 7.37186 4.53491 -4.90052
upperback 5.01346 6.14501 0.491049
thorax 0.534421 3.12678 2.79731
lowerneck -7.47731 -0.0934867 -3.23822
upperneck 21.8544 -1.45202 2.74958
head 8.0068 -1.13748 1.26492
rclavicle 7.99114e-014 -1.82882e-014
rhumerus -8.52634 -0.664194 -91.8052
rradius 35.338
rwrist 1.56233
rhand -13.6042 -35.9298
rfingers 7.12502
rthumb 12.5108 -65.5353
lclavicle 7.99114e-014 -1.82882e-014
lhumerus -33.3146 17.5453 76.4822
lradius 14.5809
lwrist -35.577
lhand -26.8027 -20.7374
lfingers 7.12502
lthumb -0.229496 9.2422
rfemur 0.487057 5.88401 20.3748
rtibia 17.5239
rfoot -25.038 8.58475
rtoes -23.4469
lfemur -63.1581 -0.910091 -18.2905
ltibia 55.5636
lfoot -21.7747 6.72973
ltoes -60.7251
247
root 8.38319 21.576 10.3667 -168.252 9.97953 -181.244
lowerback 7.3619 4.46344 -5.18648
upperback 4.91805 6.02201 0.395168
thorax 0.43472 3.06071 2.86213
lowerneck -6.45694 -0.397572 -3.82832
upperneck 20.8769 -1.88164 3.34789
head 7.52115 -1.3259 1.528
rclavicle -2.38542e-015 4.77083e-015
rhumerus -9.6264 -1.87253 -91.179
rradius 34.9339
rwrist 1.83216
rhand -14.1605 -35.8945
rfingers 7.12502
rthumb 11.9743 -65.532
lclavicle -2.38542e-015 4.77083e-015
lhumerus -32.5537 17.2366 77.0537
lradius 14.68
lwrist -35.59
lhand -26.89 -20.8794
lfingers 7.12502
lthumb -0.313851 9.10015
rfemur 0.490271 5.92066 19.8794
rtibia 18.0774
rfoot -22.3029 8.65223
rtoes -25.4916
lfemur -62.4474 -1.70232 -18.6018
ltibia 55.5527
lfoot -23.2798 6.22661
ltoes -60.4178
248
root 8.34272 21.7001 10.0974 -167.829 9.7077 -181.492
lowerback 7.34645 4.45483 -5.55588
upperback 4.8641 5.98615 0.198488
thorax 0.377682 3.03906 2.86465
lowerneck -6.74269 -0.497967 -3.67569
upperneck 20.8984 -2.08055 3.65486
head 7.58873 -1.37184 1.58562
rclavicle 1.0138e-014 -1.98785e-015
rhumerus -10.7516 -3.64488 -90.4952
rradius 34.2507
rwrist 2.33229
rhand -14.6693 -35.4979
rfingers 7.12502
rthumb 11.4837 -65.1634
lclavicle 1.0138e-014 -1.98785e-015
lhumerus -31.6086 16.6147 77.7403
lradius 14.9266
lwrist -35.5503
lhand -26.6199 -20.5695
lfingers 7.12502
lthumb -0.0529979 9.41027
rfemur 0.291595 5.84055 19.1883
rtibia 18.9553
rfoot -19.1541 8.62679
rtoes -27.3256
lfemur -61.3967 -2.33162 -19.1917
ltibia 55.0674
lfoot -24.277 5.83831
ltoes -60.6878
249
root 8.30535 21.8351 9.82864 -167.276 9.59887 -181.708
lowerback 7.14137 4.48631 -6.02783
upperback 4.78976 6.00389 0.0299166
thorax 0.386593 3.03796 2.96237
lowerneck -5.86123 -0.758062 -4.29778
upperneck 20.1336 -2.51945 4.53604
head 7.21305 -1.55555 1.94612
rclavicle 1.51076e-014 -1.55052e-014
rhumerus -11.9041 -5.70468 -89.6717
rradius 33.2895
rwrist 3.0992
rhand -14.9971 -35.399
rfingers 7.12502
rthumb 11.1676 -65.0818
lclavicle 1.51076e-014 -1.55052e-014
lhumerus -30.6784 15.0709 78.8364
lradius 15.4762
lwrist -34.3665
lhand -26.4811 -20.3268
lfingers 7.12502
lthumb 0.0810995 9.65295
rfemur -0.438193 5.6441 18.4423
rtibia 20.2658
rfoot -15.3767 8.6702
rtoes -27.4886
lfemur -60.2048 -2.53834 -19.8688
ltibia 54.077
lfoot -25.1339 5.14204
ltoes -60.2524
250
root 8.27097 21.9801 9.56043 -166.67 9.46939 -181.796
lowerback 6.91446 4.48985 -6.44591
upperback 4.64513 5.9787 -0.0616926
thorax 0.33475 3.01526 3.11105
lowerneck -6.06356 -0.784635 -4.11501
upperneck 20.2568 -2.57027 4.49497
head 7.28958 -1.56628 1.89695
rclavicle -2.78299e-015 -3.97569e-016
rhumerus -13.2836 -7.92013 -88.684
rradius 32.2748
rwrist 4.03031
rhand -15.0053 -35.6715
rfingers 7.12502
rthumb 11.1596 -65.3547
lclavicle -2.78299e-015 -3.97569e-016
lhumerus -29.9412 12.8879 80.1331
lradius 16.2565
lwrist -32.2326
lhand -26.5434 -20.0812
lfingers 7.12502
lthumb 0.0209255 9.89852
rfemur -1.6221 5.29044 17.8501
rtibia 22.1664
rfoot -11.2121 8.40909
rtoes -27.0036
lfemur -58.8703 -2.60631 -20.4091
ltibia 52.7944
lfoot -25.9585 4.28455
ltoes -59.5791
251
root 8.23606 22.1315 9.29636 -166.126 9.23138 -181.81
lowerback 6.82189 4.25226 -6.87011
upperback 4.55258 5.63064 0.0205081
thorax 0.280407 2.83127 3.46209
lowerneck -6.15869 -0.647177 -4.66852
upperneck 20.1509 -2.3476 4.85531
head 7.26975 -1.46284 2.12641
rclavicle -2.68359e-014 1.82882e-014
rhumerus -14.529 -9.36374 -87.603
rradius 31.1385
rwrist 4.72312
rhand -14.9955 -36.1786
rfingers 7.12502
rthumb 11.1691 -65.8613
lclavicle -2.68359e-014 1.82882e-014
lhumerus -29.2755 11.9248 81.1965
lradius 17.1117
lwrist -30.4831
lhand -26.4028 -19.985
lfingers 7.12502
lthumb 0.156678 9.99473
rfemur -3.19517 4.75687 17.4271
rtibia 24.7845
rfoot -7.03722 7.89907
rtoes -26.2773
lfemur -57.4132 -2.73314 -20.8497
ltibia 51.381
lfoot -26.5861 3.67481
ltoes -59.5871
